# xmcd
#
# Track frame offsets: 
#        150
#        16050
#        24760
#        35755
#        44227
#        59215
#        75722
#        89220
#        98750
#        109177
#        122885
#        134380
#        148962
#        159862
#        169252
#        182912
#        196822
#        209415
#        222655
#        237280
#        249020
#
# Disc length: 3431 seconds
#
# Revision: 0
# Processed by: cddbd v1.4PL0 Copyright (c) Steve Scherf et al.
# Submitted via: ExactAudioCopy v0.90a11
#
DISCID=390d6515
DTITLE=Greenhorns - Kdys Pepa Simek hral
DYEAR=1900
DGENRE=
TTITLE0=Zatracenej zivot
TTITLE1=Abilene
TTITLE2=Ja jsem vandrak a karbanik
TTITLE3=A tak ja zas v tom litam
TTITLE4=Houston
TTITLE5=Pres Plane
TTITLE6=T jako texas
TTITLE7=John Hardy
TTITLE8=Kdys nas tata hral
TTITLE9=Na vanoce rano
TTITLE10=Rok 1849
TTITLE11=Zelenac
TTITLE12=Casey Jones
TTITLE13=Banjo ma pet strun
TTITLE14=Matciny ruze
TTITLE15=Zbyl mi jen tvuj mokasin
TTITLE16=Zlate dny
TTITLE17=Mistre Buriane diky za ten svet
TTITLE18=Frankie a Johny
TTITLE19=Porad cestuju sam
TTITLE20=Nebij zenu v nedeli
EXTD=
EXTT0=
EXTT1=
EXTT2=
EXTT3=
EXTT4=
EXTT5=
EXTT6=
EXTT7=
EXTT8=
EXTT9=
EXTT10=
EXTT11=
EXTT12=
EXTT13=
EXTT14=
EXTT15=
EXTT16=
EXTT17=
EXTT18=
EXTT19=
EXTT20=
PLAYORDER=
